<?xml version="1.0" encoding="UTF-8" standalone="no"?>
<svg
   xmlns:dc="http://purl.org/dc/elements/1.1/"
   xmlns:cc="http://creativecommons.org/ns#"
   xmlns:rdf="http://www.w3.org/1999/02/22-rdf-syntax-ns#"
   xmlns:svg="http://www.w3.org/2000/svg"
   xmlns="http://www.w3.org/2000/svg"
   xmlns:sodipodi="http://sodipodi.sourceforge.net/DTD/sodipodi-0.dtd"
   xmlns:inkscape="http://www.inkscape.org/namespaces/inkscape"
   height="24"
   version="1.1"
   width="24"
   id="svg2"
   inkscape:version="0.91 r13725"
   sodipodi:docname="icon.svg"
   inkscape:export-filename=""
   inkscape:export-xdpi="479.99951"
   inkscape:export-ydpi="479.99951">
  <metadata
     id="metadata22">
    <rdf:RDF>
      <cc:Work
         rdf:about="">
        <dc:format>image/svg+xml</dc:format>
        <dc:type
           rdf:resource="http://purl.org/dc/dcmitype/StillImage" />
      </cc:Work>
    </rdf:RDF>
  </metadata>
  <defs
     id="defs20" />
  <sodipodi:namedview
     pagecolor="#ffffff"
     bordercolor="#666666"
     borderopacity="1"
     objecttolerance="10"
     gridtolerance="10"
     guidetolerance="10"
     inkscape:pageopacity="0"
     inkscape:pageshadow="2"
     inkscape:window-width="1125"
     inkscape:window-height="785"
     id="namedview18"
     showgrid="false"
     inkscape:zoom="19.666667"
     inkscape:cx="12.177966"
     inkscape:cy="12"
     inkscape:window-x="1"
     inkscape:window-y="0"
     inkscape:window-maximized="0"
     inkscape:current-layer="svg2" />
  <g
     transform="translate(0 -1028.4)"
     id="g4">
    <path
       d="m3.1875 6l-2 10h2v-7h18v7h2l-2-10h-18z"
       fill="#f39c12"
       transform="translate(0 1028.4)"
       id="path6" />
    <path
       d="m3.1875 1037.4-2 14h2 18 2l-2-14h-18z"
       fill="#e67e22"
       id="path8" />
    <path
       d="m9 1030.4v5h-3v0.9 0.1h0.0312l5.9688 6.5 5.969-6.5 0.031-0.1v-0.9h-3v-5h-6z"
       fill="#2c3e50"
       id="path10" />
    <path
       d="m1.1875 1044.4v7h22v-7h-8.188c-0.416 1.1-1.511 2-2.812 2-1.302 0-2.3975-0.9-2.813-2h-8.1875z"
       fill="#f1c40f"
       id="path12" />
    <rect
       fill="#f39c12"
       height="1"
       width="22"
       x="1.1875"
       y="1051.4"
       id="rect14" />
    <path
       d="m9 0v1 5.9688h-3l6 6.5312 6-6.5312h-3v-5.9688-1h-6z"
       fill="#34495e"
       transform="translate(0 1028.4)"
       id="path16" />
  </g>
</svg>
