<?xml version="1.0" encoding="UTF-8" standalone="no"?>
<svg
   xmlns:dc="http://purl.org/dc/elements/1.1/"
   xmlns:cc="http://creativecommons.org/ns#"
   xmlns:rdf="http://www.w3.org/1999/02/22-rdf-syntax-ns#"
   xmlns:svg="http://www.w3.org/2000/svg"
   xmlns="http://www.w3.org/2000/svg"
   xmlns:sodipodi="http://sodipodi.sourceforge.net/DTD/sodipodi-0.dtd"
   xmlns:inkscape="http://www.inkscape.org/namespaces/inkscape"
   height="24"
   version="1.1"
   width="24"
   id="svg2"
   inkscape:version="0.91 r13725"
   sodipodi:docname="icon.svg">
  <metadata
     id="metadata32">
    <rdf:RDF>
      <cc:Work
         rdf:about="">
        <dc:format>image/svg+xml</dc:format>
        <dc:type
           rdf:resource="http://purl.org/dc/dcmitype/StillImage" />
      </cc:Work>
    </rdf:RDF>
  </metadata>
  <defs
     id="defs30" />
  <sodipodi:namedview
     pagecolor="#ffffff"
     bordercolor="#666666"
     borderopacity="1"
     objecttolerance="10"
     gridtolerance="10"
     guidetolerance="10"
     inkscape:pageopacity="0"
     inkscape:pageshadow="2"
     inkscape:window-width="1407"
     inkscape:window-height="810"
     id="namedview28"
     showgrid="false"
     inkscape:zoom="19.666667"
     inkscape:cx="12"
     inkscape:cy="12"
     inkscape:window-x="-4"
     inkscape:window-y="0"
     inkscape:window-maximized="0"
     inkscape:current-layer="svg2" />
  <g
     transform="matrix(1.3222248,0,0,1.3222248,-3.866668,-1363.64)"
     id="g4">
    <path
       d="m 3,1037.4 0,2 0,2 0,6 c 0,1.1 0.8954,2 2,2 l 14,0 c 1.105,0 2,-0.9 2,-2 l 0,-6 0,-2 0,-2 -18,0 z"
       id="path6"
       inkscape:connector-curvature="0"
       style="fill:#2980b9" />
    <path
       d="M 5,3 C 3.8954,3 3,3.8954 3,5 l 0,2 0,2 0,1 0,2 0,6 c 0,1.105 0.8954,2 2,2 l 14,0 c 1.105,0 2,-0.895 2,-2 L 21,12 21,10 21,9 21,7 21,6 18,3 17,3 15,3 5,3 Z"
       transform="translate(0,1028.4)"
       id="path8"
       inkscape:connector-curvature="0"
       style="fill:#3498db" />
    <path
       d="m 6,3 0,1 0,1 0,2 c 0,1.1046 0.8954,2 2,2 l 1,0 4,0 2,0 1,0 c 1.105,0 2,-0.8954 2,-2 L 18,5.1562 18,5 18,4 18,3 6,3 Z"
       transform="translate(0,1028.4)"
       id="path10"
       inkscape:connector-curvature="0"
       style="fill:#2980b9" />
    <path
       d="m 8,1041.4 c -1.1046,0 -2,0.9 -2,2 l 0,1.8 0,3.2 12,0 0,-3.2 0,-1.8 c 0,-1.1 -0.895,-2 -2,-2 l -3,0 -5,0 z"
       id="path12"
       inkscape:connector-curvature="0"
       style="fill:#ecf0f1" />
    <rect
       height="1"
       width="12"
       x="6"
       y="1048.4"
       id="rect14"
       style="fill:#bdc3c7" />
    <path
       d="m 7,1031.4 0,1 0,2 c 0,1.1 0.8954,2 2,2 l 1,0 4,0 1,0 c 1.105,0 2,-0.9 2,-2 l 0,-1.9 0,-0.1 0,-1 -10,0 z"
       id="path16"
       inkscape:connector-curvature="0"
       style="fill:#ecf0f1" />
    <path
       d="m 8,4 0,2 c 0,0.5523 0.4477,1 1,1 l 1,0 1,0 c 0.552,0 1,-0.4477 1,-1 L 12,4 10,4 8,4 Z"
       transform="translate(0,1028.4)"
       id="path18"
       inkscape:connector-curvature="0"
       style="fill:#95a5a6" />
    <g
       id="g20"
       style="fill:#bdc3c7">
      <rect
         height="1"
         transform="translate(0,1028.4)"
         width="8"
         x="8"
         y="15"
         id="rect22" />
      <rect
         height="1"
         width="8"
         x="8"
         y="1045.4"
         id="rect24" />
      <rect
         height="1"
         width="4"
         x="8"
         y="1031.4"
         id="rect26" />
    </g>
  </g>
</svg>
