<?xml version="1.0" encoding="UTF-8" standalone="no"?>
<svg
   xmlns:dc="http://purl.org/dc/elements/1.1/"
   xmlns:cc="http://creativecommons.org/ns#"
   xmlns:rdf="http://www.w3.org/1999/02/22-rdf-syntax-ns#"
   xmlns:svg="http://www.w3.org/2000/svg"
   xmlns="http://www.w3.org/2000/svg"
   xmlns:sodipodi="http://sodipodi.sourceforge.net/DTD/sodipodi-0.dtd"
   xmlns:inkscape="http://www.inkscape.org/namespaces/inkscape"
   height="24"
   version="1.1"
   width="24"
   id="svg2"
   inkscape:version="0.91 r13725"
   sodipodi:docname="icon.svg">
  <metadata
     id="metadata20">
    <rdf:RDF>
      <cc:Work
         rdf:about="">
        <dc:format>image/svg+xml</dc:format>
        <dc:type
           rdf:resource="http://purl.org/dc/dcmitype/StillImage" />
      </cc:Work>
    </rdf:RDF>
  </metadata>
  <defs
     id="defs18" />
  <sodipodi:namedview
     pagecolor="#ffffff"
     bordercolor="#666666"
     borderopacity="1"
     objecttolerance="10"
     gridtolerance="10"
     guidetolerance="10"
     inkscape:pageopacity="0"
     inkscape:pageshadow="2"
     inkscape:window-width="1061"
     inkscape:window-height="693"
     id="namedview16"
     showgrid="false"
     inkscape:zoom="19.666667"
     inkscape:cx="3.7881356"
     inkscape:cy="12"
     inkscape:window-x="392"
     inkscape:window-y="163"
     inkscape:window-maximized="0"
     inkscape:current-layer="svg2" />
  <g
     transform="matrix(1.1784418,0,0,1.1784563,-3.0934193,-1213.0793)"
     id="g4"
     inkscape:export-xdpi="60.567829"
     inkscape:export-ydpi="60.567829">
    <g
       transform="matrix(0.70711,0.70711,-0.70711,0.70711,737.68,297.72)"
       id="g6">
      <path
         d="m 11,1028.4 0,13 1,0 6.406,0 c -0.595,-1.1 -1.416,-2.1 -2.406,-2.8 l 0,-8 c 0.616,-0.6 1.131,-1.4 1.531,-2.2 l -5.531,0 -1,0 z"
         id="path8"
         inkscape:connector-curvature="0"
         style="fill:#c0392b" />
      <path
         d="m 11,13 0,2 0,4 0,2 1,2 0,-2 0,-6 0,-2 -1,0 z"
         transform="translate(0,1028.4)"
         id="path10"
         inkscape:connector-curvature="0"
         style="fill:#bdc3c7" />
      <path
         d="m 12,13 0,2 0,4 0,2 0,2 1,-2 0,-2 0,-4 0,-2 -1,0 z"
         transform="translate(0,1028.4)"
         id="path12"
         inkscape:connector-curvature="0"
         style="fill:#7f8c8d" />
      <path
         d="m 6.4688,1028.4 c 0.4006,0.8 0.915,1.6 1.5312,2.2 l 0,8 c -0.9897,0.7 -1.8113,1.7 -2.4062,2.8 l 6.4062,0 0,-13 -5.5312,0 z"
         id="path14"
         inkscape:connector-curvature="0"
         style="fill:#e74c3c" />
    </g>
  </g>
</svg>
